# xmcd
#
# Track frame offsets:
#	150
#	21765
#	41489
#	63819
#	85222
#	103481
#	125902
#	141002
#	160865
#	190551
#	227444
#	263322
#	277765
#	298026
#	314163
#
# Disc length: 4445 seconds
#
# Revision: 1
# Processed by: cddbd v1.5PL3 Copyright (c) Steve Scherf et al.
# Submitted via: CDex 1.50Beta5
#
DISCID=cc115b0f
DTITLE=爆風スランプ - STAR BOX EXTRA 爆風スランプ
DYEAR=2001
DGENRE=Rock
TTITLE0=Runner
TTITLE1=リゾ・ラバ[resort lovers]
TTITLE2=大きな玉ねぎの下で〜はるかなる想い
TTITLE3=45歳の地図(辛口生ヴァージョン)
TTITLE4=カネ(マネーに捧ぐ)
TTITLE5=おお BEIJING
TTITLE6=がんばれ、タカハシ!
TTITLE7=旅人よ〜The Longest Journey
TTITLE8=無理だ!決定盤(YOU CAN NOT DO THAT)
TTITLE9=嗚呼!武道館
TTITLE10=らくだ
TTITLE11=青春の役立たず
TTITLE12=きのうのレジスタンス
TTITLE13=ひどく暑かった日のラヴソング
TTITLE14=転校生は宇宙人
EXTD=
EXTT0=
EXTT1=
EXTT2=
EXTT3=
EXTT4=
EXTT5=
EXTT6=
EXTT7=
EXTT8=
EXTT9=
EXTT10=
EXTT11=
EXTT12=
EXTT13=
EXTT14=
PLAYORDER=
